<svg xmlns="http://www.w3.org/2000/svg" width="140" height="119.566" viewBox="0 0 140 119.566">
  <g id="Group_10" data-name="Group 10" transform="translate(-170 -339)">
    <g id="Union_1" data-name="Union 1" transform="translate(170 339)" fill="#e6e7e8">
      <path d="M 112.0963363647461 87 L 21.72422981262207 87 C 16.98372840881348 87 12.5287504196167 85.17027282714844 9.179916381835938 81.84785461425781 C 5.839604377746582 78.53389739990234 4 74.12995910644531 4 69.44727325439453 C 4 67.40077209472656 4.351229190826416 65.39797973632813 5.043916702270508 63.49452209472656 C 5.713958263397217 61.65325164794922 6.687562465667725 59.94401931762695 7.937624931335449 58.41431427001953 C 10.44849967956543 55.34172821044922 13.96087455749512 53.17710494995117 17.82770919799805 52.31916809082031 L 20.74033355712891 51.67293930053711 L 20.95127105712891 48.69693756103516 C 21.3496036529541 43.07737350463867 23.86308288574219 37.8524169921875 28.02866744995117 33.98454284667969 C 32.22154235839844 30.09133338928223 37.69773101806641 27.94725036621094 43.44845962524414 27.94725036621094 C 45.21810531616211 27.94725036621094 46.97922897338867 28.15047836303711 48.68291854858398 28.55127143859863 L 52.3303337097168 29.40933418273926 L 53.42456436157227 25.82568740844727 C 54.35931396484375 22.76429176330566 55.84533309936523 19.86675071716309 57.84129333496094 17.21354103088379 C 59.82639694213867 14.57483291625977 62.26428985595703 12.24395847320557 65.08731079101563 10.2857084274292 C 67.9600830078125 8.292937278747559 71.15357971191406 6.740916728973389 74.57912445068359 5.672749996185303 C 78.13866424560547 4.56279182434082 81.87664794921875 4 85.68924713134766 4 C 90.25424957275391 4 94.67716979980469 4.799041748046875 98.83514404296875 6.374916553497314 C 102.8279800415039 7.888208389282227 106.4079132080078 10.0493745803833 109.4755401611328 12.79833316802979 C 112.511604309082 15.51904201507568 114.890251159668 18.67672920227051 116.5453720092773 22.18370819091797 C 118.2422943115234 25.77920913696289 119.1027069091797 29.59579086303711 119.1027069091797 33.52745819091797 C 119.1027069091797 35.53406143188477 118.8736267089844 37.53866577148438 118.4218368530273 39.48562622070313 L 117.6356887817383 42.87333297729492 L 120.8812255859375 44.12274932861328 C 125.3495635986328 45.84291839599609 129.1406860351563 48.67687606811523 131.8447265625 52.31829071044922 C 134.5631256103516 55.97904205322266 136 60.2461051940918 136 64.65822601318359 C 136 70.23054504394531 133.6902313232422 75.56954193115234 129.4962158203125 79.69171142578125 C 125.2318725585938 83.88298034667969 119.4264602661133 86.45039367675781 113.1493759155273 86.92104339599609 L 112.0963363647461 87 Z" stroke="none"/>
      <path d="M 111.9465408325195 83 L 112.8503189086914 82.93223571777344 C 123.5884704589844 82.12710571289063 132 74.10021209716797 132 64.65823364257813 C 132 57.38736724853516 127.0715560913086 50.79197311401367 119.4441833496094 47.85570907592773 L 112.9530792236328 45.35684204101563 L 114.5253677368164 38.58139419555664 C 114.9084701538086 36.93052673339844 115.1027069091797 35.23013305664063 115.1027069091797 33.52744674682617 C 115.1027069091797 19.45155334472656 101.9078674316406 8 85.68923950195313 8 C 72.35944366455078 8 60.66486740112305 15.81052589416504 57.25020980834961 26.99381637573242 L 55.06173706054688 34.16118240356445 L 47.76684188842773 32.44497299194336 C 46.36307907104492 32.11471176147461 44.91015625 31.94726371765137 43.4484748840332 31.94726371765137 C 33.74760437011719 31.94726371765137 25.61826324462891 39.42881393432617 24.94126319885254 48.979736328125 L 24.51936912536621 54.93170928955078 L 18.69413185119629 56.22418594360352 C 12.49752616882324 57.59902572631836 8 63.16013336181641 8 69.447265625 C 8 76.92026519775391 14.15665817260742 83 21.7242374420166 83 L 111.9465408325195 83 M 113.4484710693359 91 L 21.7242374420166 91 C 9.725842475891113 91 0 81.35084533691406 0 69.447265625 C 0 59.16676330566406 7.253684043884277 50.56794738769531 16.96129035949707 48.41410446166992 C 17.93047332763672 34.7410774230957 29.4180793762207 23.94726371765137 43.4484748840332 23.94726371765137 C 45.56531524658203 23.94726371765137 47.62541961669922 24.19328880310059 49.59892272949219 24.65757942199707 C 53.93857955932617 10.44494724273682 68.45184326171875 0 85.68923950195313 0 C 106.3533401489258 0 123.1027069091797 15.00934219360352 123.1027069091797 33.52744674682617 C 123.1027069091797 35.87923812866211 122.8323135375977 38.17473602294922 122.3182907104492 40.38981628417969 C 132.7102661132813 44.3903694152832 140 53.74981689453125 140 64.65823364257813 C 140 78.46758270263672 128.3173980712891 89.79499816894531 113.4484710693359 90.90984344482422 L 113.4484710693359 91 Z" stroke="none" fill="#929497"/>
    </g>
    <g id="Group_9" data-name="Group 9" transform="translate(202.68 442.403)">
      <path id="Path_43" data-name="Path 43" d="M1245.236,383.89h9.743l-6.648,16.163H1238.7Z" transform="translate(-1181.078 -383.89)" fill="#1e87e8"/>
      <path id="Path_44" data-name="Path 44" d="M1245.236,383.89h9.743l-6.648,16.163H1238.7Z" transform="translate(-1200.286 -383.89)" fill="#1e87e8"/>
      <path id="Path_45" data-name="Path 45" d="M1245.236,383.89h9.743l-6.648,16.163H1238.7Z" transform="translate(-1219.494 -383.89)" fill="#1e87e8"/>
      <path id="Path_46" data-name="Path 46" d="M1245.236,383.89h9.743l-6.648,16.163H1238.7Z" transform="translate(-1238.703 -383.89)" fill="#1e87e8"/>
    </g>
  </g>
</svg>
