<svg width="158" height="135" viewBox="0 0 158 135" fill="none"
  xmlns="http://www.w3.org/2000/svg">
  <g filter="url(#filter0_dd)">
    <path d="M121.096 96H30.7242C25.9837 96 21.5288 94.1703 18.1799 90.8479C14.8396 87.5339 13 83.13 13 78.4473C13 76.4008 13.3512 74.398 14.0439 72.4945C14.714 70.6533 15.6876 68.944 16.9376 67.4143C19.4485 64.3417 22.9609 62.1771 26.8277 61.3192L29.7403 60.6729L29.9513 57.6969C30.3496 52.0774 32.8631 46.8524 37.0287 42.9845C41.2215 39.0913 46.6977 36.9473 52.4485 36.9473C54.2181 36.9473 55.9792 37.1505 57.6829 37.5513L61.3303 38.4093L62.4246 34.8257C63.3593 31.7643 64.8453 28.8668 66.8413 26.2135C68.8264 23.5748 71.2643 21.244 74.0873 19.2857C76.9601 17.2929 80.1536 15.7409 83.5791 14.6727C87.1387 13.5628 90.8766 13 94.6892 13C99.2542 13 103.677 13.799 107.835 15.3749C111.828 16.8882 115.408 19.0494 118.476 21.7983C121.512 24.519 123.89 27.6767 125.545 31.1837C127.242 34.7792 128.103 38.5958 128.103 42.5275C128.103 44.5341 127.874 46.5387 127.422 48.4856L126.636 51.8733L129.881 53.1227C134.35 54.8429 138.141 57.6769 140.845 61.3183C143.563 64.979 145 69.2461 145 73.6582C145 79.2305 142.69 84.5695 138.496 88.6917C134.232 92.883 128.426 95.4504 122.149 95.921L121.096 96Z" fill="#D6DFFF"/>
    <path d="M120.947 92L121.85 91.9322C132.588 91.1271 141 83.1002 141 73.6582C141 66.3874 136.072 59.792 128.444 56.8557L121.953 54.3568L123.525 47.5814C123.908 45.9305 124.103 44.2301 124.103 42.5274C124.103 28.4516 110.908 17 94.6892 17C81.3594 17 69.6649 24.8105 66.2502 35.9938L64.0617 43.1612L56.7668 41.445C55.3631 41.1147 53.9102 40.9473 52.4485 40.9473C42.7476 40.9473 34.6183 48.4288 33.9413 57.9797L33.5194 63.9317L27.6941 65.2242C21.4975 66.599 17 72.1601 17 78.4473C17 85.9203 23.1567 92 30.7242 92H120.947ZM122.448 100H30.7242C18.7258 100 9 90.3508 9 78.4473C9 68.1668 16.2537 59.5679 25.9613 57.4141C26.9305 43.7411 38.4181 32.9473 52.4485 32.9473C54.5653 32.9473 56.6254 33.1933 58.5989 33.6576C62.9386 19.4449 77.4518 9 94.6892 9C115.353 9 132.103 24.0093 132.103 42.5274C132.103 44.8792 131.832 47.1747 131.318 49.3898C141.71 53.3904 149 62.7498 149 73.6582C149 87.4676 137.317 98.795 122.448 99.9098V100Z" fill="#D6DFFF"/>
  </g>
  <g filter="url(#filter1_dd)">
    <path d="M107.838 112.403H117.581L110.933 128.566H101.302L107.838 112.403Z" fill="#D6DFFF"/>
    <path d="M88.63 112.403H98.373L91.7251 128.566H82.094L88.63 112.403Z" fill="#D6DFFF"/>
    <path d="M69.422 112.403H79.165L72.5171 128.566H62.886L69.422 112.403Z" fill="#D6DFFF"/>
    <path d="M50.213 112.403H59.9561L53.3081 128.566H43.677L50.213 112.403Z" fill="#D6DFFF"/>
  </g>
  <defs>
    <filter id="filter0_dd" x="0" y="0" width="158" height="109" filterUnits="userSpaceOnUse" color-interpolation-filters="sRGB">
      <feFlood flood-opacity="0" result="BackgroundImageFix"/>
      <feColorMatrix in="SourceAlpha" type="matrix" values="0 0 0 0 0 0 0 0 0 0 0 0 0 0 0 0 0 0 127 0"/>
      <feOffset dx="3" dy="3"/>
      <feGaussianBlur stdDeviation="3"/>
      <feColorMatrix type="matrix" values="0 0 0 0 0.733333 0 0 0 0 0.792157 0 0 0 0 1 0 0 0 1 0"/>
      <feBlend mode="normal" in2="BackgroundImageFix" result="effect1_dropShadow"/>
      <feColorMatrix in="SourceAlpha" type="matrix" values="0 0 0 0 0 0 0 0 0 0 0 0 0 0 0 0 0 0 127 0"/>
      <feOffset dx="-3" dy="-3"/>
      <feGaussianBlur stdDeviation="3"/>
      <feColorMatrix type="matrix" values="0 0 0 0 1 0 0 0 0 1 0 0 0 0 1 0 0 0 0.3 0"/>
      <feBlend mode="normal" in2="effect1_dropShadow" result="effect2_dropShadow"/>
      <feBlend mode="normal" in="SourceGraphic" in2="effect2_dropShadow" result="shape"/>
    </filter>
    <filter id="filter1_dd" x="37.677" y="106.403" width="85.9041" height="28.163" filterUnits="userSpaceOnUse" color-interpolation-filters="sRGB">
      <feFlood flood-opacity="0" result="BackgroundImageFix"/>
      <feColorMatrix in="SourceAlpha" type="matrix" values="0 0 0 0 0 0 0 0 0 0 0 0 0 0 0 0 0 0 127 0"/>
      <feOffset dx="2" dy="2"/>
      <feGaussianBlur stdDeviation="2"/>
      <feColorMatrix type="matrix" values="0 0 0 0 0.733333 0 0 0 0 0.792157 0 0 0 0 1 0 0 0 1 0"/>
      <feBlend mode="normal" in2="BackgroundImageFix" result="effect1_dropShadow"/>
      <feColorMatrix in="SourceAlpha" type="matrix" values="0 0 0 0 0 0 0 0 0 0 0 0 0 0 0 0 0 0 127 0"/>
      <feOffset dx="-2" dy="-2"/>
      <feGaussianBlur stdDeviation="2"/>
      <feColorMatrix type="matrix" values="0 0 0 0 1 0 0 0 0 1 0 0 0 0 1 0 0 0 0.3 0"/>
      <feBlend mode="normal" in2="effect1_dropShadow" result="effect2_dropShadow"/>
      <feBlend mode="normal" in="SourceGraphic" in2="effect2_dropShadow" result="shape"/>
    </filter>
  </defs>
</svg>
