<svg width="26" height="27" viewBox="0 0 26 27" fill="none"
    xmlns="http://www.w3.org/2000/svg">
    <g clip-path="url(#clip0)" filter="url(#filter0_dd)">
        <path d="M22.324 18.82L19.024 15.52C19.6592 14.279 20.0013 12.9089 20.024 11.515C20.024 9.83169 19.5248 8.18617 18.5896 6.78654C17.6544 5.38692 16.3252 4.29604 14.77 3.65186C13.2148 3.00769 11.5035 2.83914 9.85257 3.16754C8.2016 3.49594 6.68509 4.30653 5.4948 5.49682C4.30452 6.6871 3.49392 8.20362 3.16552 9.85459C2.83713 11.5056 3.00567 13.2168 3.64985 14.772C4.29403 16.3272 5.3849 17.6564 6.78453 18.5916C8.18416 19.5268 9.82967 20.026 11.513 20.026C12.9069 20.0033 14.277 19.6612 15.518 19.026L18.818 22.326C19.0439 22.5626 19.3155 22.7509 19.6163 22.8795C19.9171 23.0082 20.2408 23.0745 20.568 23.0745C20.8951 23.0745 21.2189 23.0082 21.5197 22.8795C21.8205 22.7509 22.092 22.5626 22.318 22.326C22.7543 21.8467 22.9966 21.2223 22.9977 20.5742C22.9988 19.9261 22.7586 19.3008 22.324 18.82V18.82ZM11.51 18.02C10.2228 18.02 8.96457 17.6383 7.89434 16.9232C6.8241 16.2081 5.98995 15.1917 5.49738 14.0025C5.0048 12.8133 4.87592 11.5048 5.12704 10.2424C5.37815 8.97993 5.99798 7.82031 6.90814 6.91015C7.8183 5.99999 8.97791 5.38016 10.2403 5.12905C11.5028 4.87794 12.8113 5.00682 14.0005 5.49939C15.1897 5.99197 16.2061 6.82612 16.9212 7.89635C17.6363 8.96659 18.018 10.2248 18.018 11.512C18.0189 12.3668 17.8512 13.2133 17.5245 14.0032C17.1979 14.7931 16.7186 15.5108 16.1142 16.1152C15.5098 16.7196 14.7921 17.1989 14.0022 17.5256C13.2123 17.8522 12.3658 18.0199 11.511 18.019L11.51 18.02Z" fill="#D6DFFF"/>
    </g>
    <defs>
        <filter id="filter0_dd" x="0" y="0" width="26" height="26.075" filterUnits="userSpaceOnUse" color-interpolation-filters="sRGB">
            <feFlood flood-opacity="0" result="BackgroundImageFix"/>
            <feColorMatrix in="SourceAlpha" type="matrix" values="0 0 0 0 0 0 0 0 0 0 0 0 0 0 0 0 0 0 127 0"/>
            <feOffset dx="1" dy="1"/>
            <feGaussianBlur stdDeviation="1"/>
            <feColorMatrix type="matrix" values="0 0 0 0 0.733333 0 0 0 0 0.792157 0 0 0 0 1 0 0 0 1 0"/>
            <feBlend mode="normal" in2="BackgroundImageFix" result="effect1_dropShadow"/>
            <feColorMatrix in="SourceAlpha" type="matrix" values="0 0 0 0 0 0 0 0 0 0 0 0 0 0 0 0 0 0 127 0"/>
            <feOffset dx="-1" dy="-1"/>
            <feGaussianBlur stdDeviation="1"/>
            <feColorMatrix type="matrix" values="0 0 0 0 1 0 0 0 0 1 0 0 0 0 1 0 0 0 0.6 0"/>
            <feBlend mode="normal" in2="effect1_dropShadow" result="effect2_dropShadow"/>
            <feBlend mode="normal" in="SourceGraphic" in2="effect2_dropShadow" result="shape"/>
        </filter>
    </defs>
</svg>
