<svg width="54" height="54" viewBox="0 0 54 54" fill="none" xmlns="http://www.w3.org/2000/svg">
<circle cx="27.0001" cy="27" r="13.4091" fill="#FFF100" stroke="#FFB100"/>
<rect x="24.5455" width="4.90909" height="9.81818" fill="#FFB100"/>
<rect x="11.4547" y="5.7272" width="4.90909" height="9.81818" transform="rotate(-30 11.4547 5.7272)" fill="#FFB100"/>
<rect x="43.5241" y="49.4119" width="4.90909" height="9.81818" transform="rotate(150 43.5241 49.4119)" fill="#FFB100"/>
<rect x="16.3634" y="40.9091" width="4.90909" height="9.81818" transform="rotate(30 16.3634 40.9091)" fill="#FFB100"/>
<rect x="38.6151" y="14.2302" width="4.90909" height="9.81818" transform="rotate(-150 38.6151 14.2302)" fill="#FFB100"/>
<rect x="1.63647" y="15.706" width="4.90909" height="9.81818" transform="rotate(-60 1.63647 15.706)" fill="#FFB100"/>
<rect x="51.8665" y="37.6363" width="4.90909" height="9.81818" transform="rotate(120 51.8665 37.6363)" fill="#FFB100"/>
<rect x="10.1389" y="32.7272" width="4.90909" height="9.81818" transform="rotate(60 10.1389 32.7272)" fill="#FFB100"/>
<rect x="43.3635" y="20.6151" width="4.90909" height="9.81818" transform="rotate(-120 43.3635 20.6151)" fill="#FFB100"/>
<rect y="29.4546" width="4.90909" height="9.81818" transform="rotate(-90 0 29.4546)" fill="#FFB100"/>
<rect x="44.1817" y="29.4546" width="4.90909" height="9.81817" transform="rotate(-90 44.1817 29.4546)" fill="#FFB100"/>
<rect x="24.5455" y="44.1818" width="4.90909" height="9.81818" fill="#FFB100"/>
</svg>
